<svg xmlns:xlink="http://www.w3.org/1999/xlink" xmlns="http://www.w3.org/2000/svg" width="48" height="48" viewBox="0 0 48 48" fill="none" class="cus-logo-svg  replaced-inlinesvg">
<path d="M23.292 2.25C18.8595 2.25 15.252 5.496 15.252 9.48525C15.252 12.774 17.7195 15.6525 21.252 16.4843C21.4914 16.5311 21.7079 16.6575 21.8664 16.843C22.0249 17.0284 22.116 17.262 22.125 17.5057V19.191C22.1299 19.4144 22.2049 19.6306 22.3395 19.809C22.4741 19.9874 22.6615 20.1188 22.875 20.1848C23.0025 20.2282 23.1363 20.2502 23.271 20.25C23.4347 20.251 23.5969 20.2182 23.7474 20.1537C23.8978 20.0892 24.0334 19.9943 24.1455 19.875L29.1952 14.3865C29.8596 13.7537 30.3895 12.9933 30.753 12.1509C31.1166 11.3084 31.3064 10.4013 31.311 9.48375C31.311 5.496 27.7132 2.25 23.292 2.25Z" fill="#62D84E" stroke="#032D42"></path>
<path d="M15.021 29.3954C15.143 29.1233 15.152 28.8139 15.046 28.5351C14.9399 28.2564 14.7275 28.0312 14.4555 27.9089C14.1908 27.7897 13.9177 27.6914 13.644 27.5954C14.6214 26.7137 15.3019 25.5509 15.592 24.2669C15.882 22.9828 15.7675 21.6405 15.2641 20.4242C14.7607 19.2078 13.8931 18.1772 12.7804 17.4737C11.6678 16.7702 10.3646 16.4284 9.04993 16.4953C7.73523 16.5621 6.47347 17.0343 5.43791 17.847C4.40234 18.6598 3.64376 19.7731 3.26632 21.0342C2.88889 22.2954 2.91112 23.6424 3.32995 24.8904C3.74878 26.1384 4.54369 27.2261 5.6055 28.0042C3.96393 28.7279 2.56379 29.9063 1.5705 31.4003C0.577196 32.8942 0.0322375 34.6412 0 36.4349L0 38.6249C0 38.9233 0.118526 39.2095 0.329505 39.4204C0.540483 39.6314 0.826631 39.7499 1.125 39.7499C1.42337 39.7499 1.70952 39.6314 1.9205 39.4204C2.13147 39.2095 2.25 38.9233 2.25 38.6249V36.4349C2.25 32.4749 5.7825 29.2499 10.125 29.2499C11.2991 29.2424 12.4613 29.4847 13.5345 29.9609C13.8066 30.083 14.1161 30.0919 14.3948 29.9859C14.6736 29.8799 14.8988 29.6675 15.021 29.3954V29.3954ZM9.375 18.7499C10.1908 18.7499 10.9884 18.9919 11.6667 19.4451C12.3451 19.8984 12.8738 20.5426 13.186 21.2964C13.4982 22.0501 13.5799 22.8795 13.4207 23.6797C13.2616 24.4799 12.8687 25.2149 12.2918 25.7918C11.7149 26.3687 10.9799 26.7615 10.1797 26.9207C9.37958 27.0798 8.55018 26.9982 7.79643 26.6859C7.04269 26.3737 6.39845 25.845 5.94519 25.1667C5.49193 24.4883 5.25 23.6908 5.25 22.8749C5.25139 21.7814 5.68643 20.733 6.45972 19.9597C7.23301 19.1864 8.28141 18.7513 9.375 18.7499V18.7499Z" fill="#FFFFFF" stroke="#032D42"></path>
<path d="M42.4762 28.4399C43.6405 27.7941 44.5736 26.8002 45.1448 25.5976C45.7159 24.3949 45.8967 23.0438 45.6616 21.7333C45.4265 20.4228 44.7874 19.2187 43.8337 18.2896C42.8801 17.3605 41.6598 16.753 40.3436 16.5521C39.0275 16.3512 37.6815 16.567 36.4941 17.1693C35.3067 17.7716 34.3375 18.7303 33.7222 19.9109C33.1069 21.0916 32.8763 22.4352 33.0627 23.7534C33.2491 25.0717 33.8432 26.2987 34.7617 27.2624C34.0858 27.4107 33.4266 27.6273 32.7945 27.9089C32.5303 28.036 32.3261 28.2613 32.2255 28.5367C32.1249 28.8121 32.1358 29.1159 32.2558 29.3834C32.3759 29.6509 32.5956 29.8609 32.8683 29.9688C33.1409 30.0767 33.4449 30.0739 33.7155 29.9609C34.7887 29.4847 35.9509 29.2424 37.125 29.2499C41.4675 29.2499 45 32.4749 45 36.4349V38.6249C45 38.9233 45.1185 39.2094 45.3295 39.4204C45.5405 39.6314 45.8266 39.7499 46.125 39.7499C46.4234 39.7499 46.7095 39.6314 46.9205 39.4204C47.1315 39.2094 47.25 38.9233 47.25 38.6249V36.4349C47.2266 34.8004 46.773 33.2009 45.935 31.7974C45.097 30.3939 43.904 29.2359 42.4762 28.4399ZM39.375 18.7499C40.1908 18.7499 40.9884 18.9919 41.6667 19.4451C42.3451 19.8984 42.8738 20.5426 43.186 21.2964C43.4982 22.0501 43.5799 22.8795 43.4207 23.6797C43.2616 24.4798 42.8687 25.2149 42.2918 25.7917C41.7149 26.3686 40.9799 26.7615 40.1797 26.9207C39.3796 27.0798 38.5502 26.9981 37.7964 26.6859C37.0427 26.3737 36.3984 25.845 35.9452 25.1667C35.4919 24.4883 35.25 23.6908 35.25 22.8749C35.2514 21.7813 35.6864 20.7329 36.4597 19.9596C37.233 19.1864 38.2814 18.7513 39.375 18.7499V18.7499Z" fill="#FFFFFF" stroke="#032D42"></path>
<path d="M27.675 35.2933C28.6894 34.4588 29.4213 33.3313 29.7706 32.065C30.1198 30.7987 30.0693 29.4555 29.6261 28.2189C29.1828 26.9824 28.3684 25.913 27.2943 25.1569C26.2201 24.4009 24.9386 23.9951 23.625 23.9951C22.3114 23.9951 21.0299 24.4009 19.9557 25.1569C18.8816 25.913 18.0672 26.9824 17.6239 28.2189C17.1807 29.4555 17.1302 30.7987 17.4794 32.065C17.8287 33.3313 18.5606 34.4588 19.575 35.2933C17.8174 35.965 16.3003 37.146 15.218 38.6851C14.1357 40.2242 13.5375 42.0514 13.5 43.9326V44.6248C13.5 44.9232 13.6185 45.2094 13.8295 45.4203C14.0405 45.6313 14.3266 45.7498 14.625 45.7498C14.9234 45.7498 15.2095 45.6313 15.4205 45.4203C15.6315 45.2094 15.75 44.9232 15.75 44.6248V43.9326C15.75 39.9748 19.2825 36.7498 23.625 36.7498C27.9675 36.7498 31.5 39.9748 31.5 43.9326V44.6248C31.5 44.9232 31.6185 45.2094 31.8295 45.4203C32.0405 45.6313 32.3266 45.7498 32.625 45.7498C32.9234 45.7498 33.2095 45.6313 33.4205 45.4203C33.6315 45.2094 33.75 44.9232 33.75 44.6248V43.9326C33.7125 42.0514 33.1143 40.2242 32.032 38.6851C30.9497 37.146 29.4326 35.965 27.675 35.2933V35.2933ZM19.5 30.3748C19.5 29.559 19.7419 28.7615 20.1952 28.0831C20.6484 27.4048 21.2927 26.876 22.0464 26.5638C22.8002 26.2516 23.6296 26.1699 24.4297 26.3291C25.2299 26.4883 25.9649 26.8811 26.5418 27.458C27.1187 28.0349 27.5116 28.7699 27.6707 29.5701C27.8299 30.3703 27.7482 31.1997 27.436 31.9534C27.1238 32.7072 26.5951 33.3514 25.9167 33.8047C25.2384 34.2579 24.4408 34.4998 23.625 34.4998C22.5314 34.4985 21.483 34.0634 20.7097 33.2901C19.9364 32.5168 19.5014 31.4684 19.5 30.3748V30.3748Z" fill="#FFFFFF" stroke="#032D42"></path>
</svg>