<svg xmlns:xlink="http://www.w3.org/1999/xlink" xmlns="http://www.w3.org/2000/svg" width="64" height="64" viewBox="0 0 64 64" fill="none" class="cus-logo-svg  replaced-inlinesvg">
<path fill-rule="evenodd" clip-rule="evenodd" d="M41.4099 5.75501C38.6308 4.96174 35.7133 4.77682 32.8563 5.21284L32.8487 5.21398C27.9525 5.93562 23.4713 8.37135 20.2028 12.0875C16.9372 15.8004 15.0938 20.5506 15 25.494V27.48C15 27.7662 14.9181 28.0465 14.764 28.2877L7.96046 38.9352L13.7764 40.0257C14.4859 40.1587 15 40.7782 15 41.5V49.5C15 49.5271 14.9993 49.5541 14.9978 49.5812C14.9803 49.9037 15.031 50.2263 15.1465 50.5279C15.262 50.8296 15.4397 51.1035 15.6681 51.3319C15.8965 51.5603 16.1704 51.738 16.4721 51.8535C16.7737 51.969 17.0963 52.0197 17.4189 52.0022C17.4459 52.0007 17.4729 52 17.5 52H25.5C26.9587 52 28.3576 52.5795 29.3891 53.6109C30.4205 54.6424 31 56.0413 31 57.5V61.5C31 62.3284 30.3284 63 29.5 63C28.6716 63 28 62.3284 28 61.5V57.5C28 56.837 27.7366 56.2011 27.2678 55.7322C26.7989 55.2634 26.163 55 25.5 55H17.5372C16.8087 55.0334 16.0809 54.9161 15.3995 54.6552C14.7043 54.3891 14.0731 53.9795 13.5468 53.4532C13.0205 52.9269 12.6109 52.2957 12.3448 51.6006C12.0839 50.9191 11.9666 50.1913 12 49.4628V42.7449L5.22357 41.4743C4.73365 41.3825 4.32136 41.0532 4.12339 40.5958C3.92541 40.1383 3.96762 39.6124 4.23601 39.1923L12 27.0417V25.48L12.0003 25.4525C12.104 19.794 14.2124 14.3559 17.9501 10.1062C21.687 5.85758 26.81 3.07253 32.4075 2.2466C35.6895 1.74628 39.0409 1.95897 42.2333 2.87023C45.427 3.78184 48.3867 5.37112 50.9108 7.52981C53.4348 9.6885 55.464 12.3659 56.8599 15.3795C58.2558 18.3932 58.9857 21.6723 59 24.9936C59 25.0001 59 25.0065 58.9999 25.013C58.9999 25.0178 58.9998 25.0227 58.9998 25.0275C58.9221 29.2672 57.8323 33.4269 55.8213 37.1601C52.554 43.2399 51.2823 50.1935 52.1861 57.0361L52.4851 59.1389C52.6017 59.959 52.0313 60.7185 51.2112 60.8351C50.391 60.9517 49.6316 60.3813 49.5149 59.5612L49.2149 57.4512L49.213 57.4368C48.2247 49.9675 49.6122 42.3767 53.1787 35.74L53.1795 35.7385C54.9615 32.4309 55.9284 28.7458 55.9999 24.9895C55.9851 22.1052 55.3501 19.2578 54.1377 16.6404C52.923 14.018 51.1573 11.6882 48.9609 9.80971C46.7645 7.93125 44.189 6.54828 41.4099 5.75501Z" fill="#FFFFFF" stroke="#032D42"></path>
<path d="M37 32C37 32.5304 36.7893 33.0392 36.4142 33.4142C36.0391 33.7893 35.5304 34 35 34C34.4696 34 33.9609 33.7893 33.5858 33.4142C33.2107 33.0392 33 32.5304 33 32V20C33.0112 19.8673 33.0381 19.7364 33.08 19.61C32.0125 19.166 31.1318 18.3658 30.5879 17.3456C30.044 16.3254 29.8704 15.1482 30.0968 14.0144C30.3231 12.8806 30.9354 11.8603 31.8294 11.1272C32.7234 10.394 33.8438 9.99335 35 9.99335C36.1562 9.99335 37.2766 10.394 38.1706 11.1272C39.0646 11.8603 39.6769 12.8806 39.9032 14.0144C40.1296 15.1482 39.9561 16.3254 39.4121 17.3456C38.8682 18.3658 37.9875 19.166 36.92 19.61C36.9619 19.7364 36.9888 19.8673 37 20V32ZM50 25C50.0005 24.0985 49.7572 23.2135 49.2958 22.439C48.8345 21.6644 48.1723 21.0289 47.3794 20.5999C46.5865 20.1709 45.6923 19.9642 44.7915 20.0018C43.8908 20.0394 43.0169 20.3198 42.2625 20.8134C41.508 21.307 40.9011 21.9955 40.5059 22.8058C40.1108 23.6161 39.942 24.5182 40.0176 25.4166C40.0932 26.315 40.4103 27.1762 40.9353 27.9091C41.4603 28.6421 42.1737 29.2194 43 29.58V31.17L37.59 36.59C37.2144 36.9634 37.0022 37.4704 37 38V44C37 44.5304 37.2107 45.0392 37.5858 45.4142C37.9609 45.7893 38.4696 46 39 46C39.5304 46 40.0391 45.7893 40.4142 45.4142C40.7893 45.0392 41 44.5304 41 44V38.83L46.41 33.41C46.7856 33.0367 46.9978 32.5296 47 32V29.58C47.8913 29.191 48.6498 28.5506 49.1826 27.7371C49.7154 26.9237 49.9995 25.9725 50 25ZM27 31.17V29.58C28.0528 29.1205 28.9153 28.3126 29.4424 27.292C29.9696 26.2713 30.1292 25.1004 29.8945 23.9759C29.6598 22.8514 29.0451 21.842 28.1538 21.1175C27.2624 20.393 26.1487 19.9974 25 19.9974C23.8513 19.9974 22.7376 20.393 21.8463 21.1175C20.9549 21.842 20.3402 22.8514 20.1055 23.9759C19.8708 25.1004 20.0304 26.2713 20.5576 27.292C21.0847 28.3126 21.9472 29.1205 23 29.58V32C23.0022 32.5296 23.2144 33.0367 23.59 33.41L29 38.83V44C29 44.5304 29.2107 45.0392 29.5858 45.4142C29.9609 45.7893 30.4696 46 31 46C31.5304 46 32.0391 45.7893 32.4142 45.4142C32.7893 45.0392 33 44.5304 33 44V38C32.9978 37.4704 32.7856 36.9634 32.41 36.59L27 31.17Z" fill="#62D84E" stroke="#032D42"></path>
</svg>