<svg xmlns:xlink="http://www.w3.org/1999/xlink" xmlns="http://www.w3.org/2000/svg" width="48" height="48" viewBox="0 0 48 48" fill="none" class="cus-logo-svg  replaced-inlinesvg">
<path d="M42.1957 20.1599C41.9829 20.1601 41.7743 20.0999 41.5943 19.9862C41.4142 19.8726 41.2701 19.7102 41.1787 19.5179C39.5298 16.0117 36.8966 13.0608 33.6 11.0249C33.3456 10.869 33.1636 10.6184 33.0939 10.3282C33.0595 10.1845 33.0536 10.0355 33.0767 9.88953C33.0999 9.7436 33.1515 9.60365 33.2287 9.47768C33.306 9.35171 33.4072 9.24219 33.5268 9.15535C33.6463 9.06852 33.7818 9.00609 33.9255 8.97161C34.2157 8.90199 34.5216 8.95049 34.776 9.10643C38.4453 11.3697 41.3769 14.6515 43.2135 18.5519C43.2951 18.7233 43.3321 18.9126 43.3208 19.1022C43.3096 19.2917 43.2506 19.4753 43.1493 19.6359C43.048 19.7965 42.9078 19.9288 42.7416 20.0206C42.5753 20.1123 42.3886 20.1605 42.1987 20.1607L42.1957 20.1599ZM4.97925 20.0849C4.79004 20.0847 4.60393 20.0368 4.43815 19.9456C4.27236 19.8544 4.13226 19.7229 4.03079 19.5632C3.92933 19.4035 3.86979 19.2208 3.85768 19.032C3.84557 18.8431 3.88127 18.6543 3.9615 18.4829C5.24104 15.7501 7.07784 13.315 9.354 11.3339C10.3284 10.4966 11.3724 9.74383 12.4747 9.08393C12.7312 8.93137 13.0378 8.88694 13.3271 8.96044C13.6163 9.03393 13.8646 9.21931 14.0171 9.47581C14.1697 9.73231 14.2141 10.0389 14.1406 10.3282C14.0671 10.6174 13.8817 10.8656 13.6252 11.0182C12.6367 11.6103 11.7003 12.2855 10.8262 13.0364C8.78937 14.8106 7.14552 16.9907 6 19.4369C5.90919 19.6309 5.76489 19.7949 5.58408 19.9097C5.40326 20.0245 5.19343 20.0853 4.97925 20.0849V20.0849Z" fill="#62D84E" stroke="#032D42"></path>
<path d="M43.125 39H24.75V33.75H43.125C43.4234 33.75 43.7095 33.6315 43.9205 33.4205C44.1315 33.2095 44.25 32.9234 44.25 32.625C44.25 32.3266 44.1315 32.0405 43.9205 31.8295C43.7095 31.6185 43.4234 31.5 43.125 31.5C41.8326 31.4984 40.5935 30.9843 39.6796 30.0704C38.7657 29.1565 38.2516 27.9174 38.25 26.625C38.2443 22.944 36.8516 19.4003 34.3496 16.7003C31.8476 14.0003 28.4199 12.3424 24.75 12.057V11.5785C24.7573 10.6899 25.1167 9.84053 25.7494 9.21657C26.3821 8.5926 27.2364 8.24501 28.125 8.25H29.625C29.9234 8.25 30.2095 8.13147 30.4205 7.9205C30.6315 7.70952 30.75 7.42337 30.75 7.125C30.75 6.82663 30.6315 6.54048 30.4205 6.3295C30.2095 6.11853 29.9234 6 29.625 6H17.625C17.3266 6 17.0405 6.11853 16.8295 6.3295C16.6185 6.54048 16.5 6.82663 16.5 7.125C16.5 7.42337 16.6185 7.70952 16.8295 7.9205C17.0405 8.13147 17.3266 8.25 17.625 8.25H19.125C20.0136 8.24501 20.8679 8.5926 21.5006 9.21657C22.1333 9.84053 22.4927 10.6899 22.5 11.5785V12.057C18.8301 12.3424 15.4024 14.0003 12.9004 16.7003C10.3984 19.4003 9.00571 22.944 9 26.625C8.99841 27.9174 8.48429 29.1565 7.57039 30.0704C6.6565 30.9843 5.41744 31.4984 4.125 31.5C3.82663 31.5 3.54048 31.6185 3.3295 31.8295C3.11853 32.0405 3 32.3266 3 32.625C3 32.9234 3.11853 33.2095 3.3295 33.4205C3.54048 33.6315 3.82663 33.75 4.125 33.75H22.5V39H4.125C3.82663 39 3.54048 39.1185 3.3295 39.3295C3.11853 39.5405 3 39.8266 3 40.125C3 40.4234 3.11853 40.7095 3.3295 40.9205C3.54048 41.1315 3.82663 41.25 4.125 41.25H43.125C43.4234 41.25 43.7095 41.1315 43.9205 40.9205C44.1315 40.7095 44.25 40.4234 44.25 40.125C44.25 39.8266 44.1315 39.5405 43.9205 39.3295C43.7095 39.1185 43.4234 39 43.125 39V39ZM11.25 26.625C11.25 23.3429 12.5538 20.1953 14.8746 17.8746C17.1953 15.5538 20.3429 14.25 23.625 14.25C26.9071 14.25 30.0547 15.5538 32.3754 17.8746C34.6962 20.1953 36 23.3429 36 26.625C35.9987 28.4372 36.6904 30.1813 37.9335 31.5H9.3165C10.5596 30.1813 11.2513 28.4372 11.25 26.625Z" fill="#FFFFFF" stroke="#032D42"></path>
</svg>