<svg xmlns:xlink="http://www.w3.org/1999/xlink" xmlns="http://www.w3.org/2000/svg" width="48" height="48" viewBox="0 0 48 48" fill="none" class="cus-logo-svg  replaced-inlinesvg">
<g clip-path="url(#clip0_760_18481)" stroke="#032D42" fill="none">
<path d="M30.48 16.0725C30.3746 15.9686 30.2498 15.8865 30.1127 15.8308C29.9755 15.7751 29.8288 15.747 29.6808 15.7481C29.5328 15.7491 29.3865 15.7793 29.2501 15.8369C29.1138 15.8945 28.9902 15.9784 28.8862 16.0838C28.7823 16.1892 28.7002 16.314 28.6445 16.4511C28.5889 16.5882 28.5608 16.735 28.5618 16.883C28.5628 17.031 28.593 17.1773 28.6506 17.3136C28.7082 17.45 28.7921 17.5736 28.8975 17.6775L30 18.75H23.835C22.095 18.7276 20.4048 19.3309 19.0723 20.4501C17.7397 21.5692 16.8535 23.1298 16.575 24.8475C16.4281 25.8641 16.5025 26.9004 16.7931 27.8856C17.0837 28.8708 17.5836 29.7816 18.2588 30.5557C18.9339 31.3298 19.7682 31.949 20.7048 32.3709C21.6413 32.7927 22.6579 33.0073 23.685 33C23.8868 32.9988 24.084 32.9394 24.2529 32.829C24.4218 32.7186 24.5553 32.5618 24.6375 32.3775C24.7212 32.2053 24.7598 32.0147 24.7499 31.8236C24.7399 31.6324 24.6816 31.4468 24.5805 31.2843C24.4794 31.1217 24.3387 30.9875 24.1716 30.894C24.0045 30.8006 23.8164 30.7511 23.625 30.75C22.8886 30.7503 22.1617 30.5841 21.4987 30.2637C20.8357 29.9434 20.2537 29.4772 19.7963 28.9001C19.339 28.323 19.0181 27.6499 18.8577 26.9312C18.6972 26.2125 18.7015 25.4668 18.87 24.75C19.1454 23.6637 19.7796 22.7022 20.67 22.0215C21.5603 21.3408 22.6544 20.9809 23.775 21H29.835L28.83 22.0125C28.7248 22.1165 28.6412 22.2403 28.5842 22.3767C28.5272 22.5132 28.4979 22.6596 28.4979 22.8075C28.4979 22.9554 28.5272 23.1019 28.5842 23.2383C28.6412 23.3748 28.7248 23.4986 28.83 23.6025C29.0421 23.8115 29.3272 23.9298 29.625 23.9325C29.7727 23.9328 29.9191 23.9038 30.0555 23.8471C30.192 23.7905 30.3159 23.7074 30.42 23.6025L33.42 20.6025C33.5265 20.495 33.6106 20.3673 33.6672 20.227C33.7239 20.0866 33.752 19.9364 33.75 19.785C33.7497 19.4868 33.631 19.2008 33.42 18.99L30.48 16.0725Z" fill="#FFFFFF" stroke="#032D42"></path>
<path d="M36.42 3.99003L33.48 1.07253C33.3746 0.968618 33.2498 0.886484 33.1127 0.830815C32.9755 0.775145 32.8288 0.74703 32.6808 0.748075C32.5328 0.74912 32.3865 0.779303 32.2501 0.836903C32.1138 0.894503 31.9902 0.978391 31.8862 1.08378C31.7823 1.18916 31.7002 1.31398 31.6445 1.45111C31.5889 1.58824 31.5608 1.73499 31.5618 1.88298C31.5628 2.03097 31.593 2.17731 31.6506 2.31364C31.7082 2.44997 31.7921 2.57362 31.8975 2.67753L33 3.75003H24.195C12.6 3.75003 2.91 12.1575 1.6425 23.31C1.28538 26.4106 1.5874 29.5517 2.52878 32.5274C3.47016 35.5031 5.02964 38.2464 7.10507 40.5774C9.18049 42.9085 11.725 44.7747 14.5719 46.0539C17.4189 47.333 20.5039 47.9962 23.625 48C23.9234 48 24.2095 47.8815 24.4205 47.6705C24.6315 47.4595 24.75 47.1734 24.75 46.875C24.75 46.5767 24.6315 46.2905 24.4205 46.0795C24.2095 45.8686 23.9234 45.75 23.625 45.75C20.8246 45.7466 18.0564 45.1523 15.5014 44.0059C12.9464 42.8596 10.662 41.187 8.7975 39.0975C6.91788 37.0074 5.50708 34.5393 4.6598 31.8591C3.81251 29.1788 3.54834 26.3483 3.885 23.5575C5.0175 13.5525 13.7475 6.00003 24.195 6.00003H32.835L31.83 7.01253C31.7248 7.11647 31.6412 7.24026 31.5842 7.37673C31.5272 7.5132 31.4979 7.65963 31.4979 7.80753C31.4979 7.95543 31.5272 8.10186 31.5842 8.23832C31.6412 8.37479 31.7248 8.49859 31.83 8.60253C32.0421 8.81152 32.3272 8.92985 32.625 8.93253C32.7727 8.93281 32.9191 8.90379 33.0555 8.84714C33.192 8.7905 33.3159 8.70736 33.42 8.60253L36.42 5.60253C36.5265 5.49499 36.6106 5.36732 36.6672 5.22697C36.7239 5.08661 36.752 4.93637 36.75 4.78503C36.7497 4.48676 36.631 4.2008 36.42 3.99003Z" fill="#FFFFFF" stroke="#032D42"></path>
<path d="M45.42 11.5801L40.92 7.08008C40.7634 6.92283 40.5637 6.81543 40.3462 6.77139C40.1287 6.72735 39.903 6.74864 39.6975 6.83258C39.4915 6.91829 39.3153 7.06297 39.1912 7.24844C39.0671 7.43392 39.0006 7.65192 39 7.87508V11.2501H24C16.35 11.2501 9.75 16.9276 9.06 24.5101C8.87348 26.5365 9.11126 28.5795 9.75816 30.5089C10.4051 32.4383 11.4469 34.2118 12.8172 35.7162C14.1876 37.2206 15.8564 38.423 17.7172 39.2466C19.578 40.0703 21.59 40.4972 23.625 40.5001C23.9234 40.5001 24.2095 40.3815 24.4205 40.1706C24.6315 39.9596 24.75 39.6734 24.75 39.3751C24.75 39.0767 24.6315 38.7906 24.4205 38.5796C24.2095 38.3686 23.9234 38.2501 23.625 38.2501C21.9058 38.2476 20.206 37.8874 18.6336 37.1924C17.0612 36.4974 15.6506 35.4827 14.4916 34.213C13.3326 32.9432 12.4506 31.4462 11.9015 29.817C11.3525 28.1879 11.1485 26.4623 11.3025 24.7501C11.865 18.5551 17.7 13.5001 23.9175 13.5001H39V16.8751C39.0006 17.0982 39.0671 17.3162 39.1912 17.5017C39.3153 17.6872 39.4915 17.8319 39.6975 17.9176C39.8338 17.9709 39.9787 17.9989 40.125 18.0001C40.2727 18.0004 40.4191 17.9713 40.5555 17.9147C40.692 17.858 40.8159 17.7749 40.92 17.6701L45.42 13.1701C45.5252 13.0661 45.6088 12.9423 45.6658 12.8059C45.7228 12.6694 45.7521 12.523 45.7521 12.3751C45.7521 12.2272 45.7228 12.0807 45.6658 11.9443C45.6088 11.8078 45.5252 11.684 45.42 11.5801Z" fill="#62D84E" stroke="#032D42"></path>
</g>
<defs>
<clipPath id="clip0_760_18481">
<rect width="48" height="48" fill="white"></rect>
</clipPath>
</defs>
</svg>