<svg xmlns:xlink="http://www.w3.org/1999/xlink" xmlns="http://www.w3.org/2000/svg" width="48" height="48" viewBox="0 0 48 48" fill="none" class="cus-logo-svg  replaced-inlinesvg">
<path fill-rule="evenodd" clip-rule="evenodd" d="M10.725 20.25C5.88439 20.25 2.25 23.591 2.25 27.375V35.625C2.25 36.2463 1.74632 36.75 1.125 36.75C0.50368 36.75 0 36.2463 0 35.625V27.375C0 22.039 4.9756 18 10.725 18C14.4006 18 18.0873 19.5024 19.8299 22.4082C19.9294 22.5679 20.0346 22.7472 20.1257 22.9027C20.1735 22.9842 20.2174 23.0591 20.2547 23.1212C20.5743 23.654 20.4016 24.345 19.8688 24.6647C19.336 24.9843 18.645 24.8116 18.3253 24.2788C18.2617 24.1728 18.2072 24.0796 18.1555 23.9911C18.0768 23.8565 18.0044 23.7327 17.916 23.5912L17.9043 23.5721C16.7045 21.5642 13.9153 20.25 10.725 20.25Z" fill="#FFFFFF" stroke="#032D42"></path>
<path d="M30 37.185C29.6601 39.2484 28.6422 41.1397 27.1071 42.5598C25.5721 43.98 23.6075 44.8481 21.524 45.0268C19.4404 45.2056 17.3567 44.6848 15.6022 43.5468C13.8477 42.4088 12.5225 40.7186 11.8361 38.7432C11.1497 36.7679 11.1413 34.6201 11.8121 32.6394C12.4829 30.6587 13.7947 28.958 15.5402 27.8062C17.2856 26.6545 19.3652 26.1173 21.4501 26.2796C23.535 26.4419 25.5063 27.2945 27.0525 28.7025C25.4475 31.575 24.855 32.4975 22.2675 32.4975H20.6925C19.8623 32.4994 19.0664 32.8291 18.4779 33.4148C17.8894 34.0004 17.5559 34.7948 17.55 35.625C17.548 36.0356 17.6286 36.4425 17.7871 36.8213C17.9456 37.2001 18.1787 37.5432 18.4725 37.83C18.7662 38.1272 19.1168 38.3622 19.5034 38.5207C19.8901 38.6792 20.3047 38.758 20.7225 38.7525H24.4725C26.4249 38.7541 28.3391 38.2112 30 37.185V37.185Z" fill="#62D84E" stroke="#032D42"></path>
<path fill-rule="evenodd" clip-rule="evenodd" d="M10.125 6.75C7.43261 6.75 5.25 8.93261 5.25 11.625C5.25 14.3174 7.43261 16.5 10.125 16.5C12.8174 16.5 15 14.3174 15 11.625C15 8.93261 12.8174 6.75 10.125 6.75ZM3 11.625C3 7.68997 6.18997 4.5 10.125 4.5C14.06 4.5 17.25 7.68997 17.25 11.625C17.25 15.56 14.06 18.75 10.125 18.75C6.18997 18.75 3 15.56 3 11.625Z" fill="#FFFFFF" stroke="#032D42"></path>
<path fill-rule="evenodd" clip-rule="evenodd" d="M29.3451 26.5583C30.5795 24.5419 33.3461 23.2351 36.525 23.2351C41.3656 23.2351 45 26.5761 45 30.3601V38.6101C45 39.2314 45.5037 39.7351 46.125 39.7351C46.7463 39.7351 47.25 39.2314 47.25 38.6101V30.3601C47.25 25.0241 42.2744 20.9851 36.525 20.9851C32.8379 20.9851 29.1874 22.495 27.4195 25.3944L27.41 25.4102C26.699 26.6205 26.154 27.6044 25.7015 28.4339C24.8883 29.8724 24.46 30.5838 23.9954 30.9965C23.642 31.3104 23.2062 31.5001 22.125 31.5001H20.625C19.531 31.5001 18.4818 31.9347 17.7082 32.7083C16.9346 33.4819 16.5 34.5311 16.5 35.6251C16.5 36.7191 16.9346 37.7683 17.7082 38.5419C18.4818 39.3155 19.531 39.7501 20.625 39.7501H24.24C26.3022 39.7488 28.3238 39.1722 30.0762 38.0854C31.473 37.2461 32.6645 36.105 33.5634 34.7456C33.9061 34.2273 33.7638 33.5294 33.2455 33.1867C32.7272 32.844 32.0293 32.9863 31.6866 33.5046C30.9715 34.586 30.0232 35.4935 28.9114 36.1603L28.8963 36.1695C27.4982 37.0382 25.8852 37.499 24.2393 37.5001H20.625C20.1277 37.5001 19.6508 37.3026 19.2992 36.9509C18.9475 36.5993 18.75 36.1224 18.75 35.6251C18.75 35.1278 18.9475 34.6509 19.2992 34.2993C19.6508 33.9477 20.1277 33.7501 20.625 33.7501H22.125C23.5038 33.7501 24.568 33.4973 25.4896 32.6787C26.2875 31.97 26.9023 30.8822 27.6323 29.5905L27.6644 29.5337L27.6726 29.5188C28.1183 28.7018 28.6506 27.7406 29.3451 26.5583Z" fill="#FFFFFF" stroke="#032D42"></path>
<path fill-rule="evenodd" clip-rule="evenodd" d="M37.125 9.75C34.4326 9.75 32.25 11.9326 32.25 14.625C32.25 17.3174 34.4326 19.5 37.125 19.5C39.8174 19.5 42 17.3174 42 14.625C42 11.9326 39.8174 9.75 37.125 9.75ZM30 14.625C30 10.69 33.19 7.5 37.125 7.5C41.06 7.5 44.25 10.69 44.25 14.625C44.25 18.56 41.06 21.75 37.125 21.75C33.19 21.75 30 18.56 30 14.625Z" fill="#FFFFFF" stroke="#032D42"></path>
</svg>