<svg xmlns:xlink="http://www.w3.org/1999/xlink" xmlns="http://www.w3.org/2000/svg" width="48" height="48" viewBox="0 0 48 48" fill="none" class="cus-logo-svg  replaced-inlinesvg">
<path d="M43.875 3.75H3.375C2.4802 3.75099 1.62233 4.10689 0.989611 4.73961C0.356891 5.37233 0.00099257 6.2302 0 7.125L0 32.625C0.00099257 33.5198 0.356891 34.3777 0.989611 35.0104C1.62233 35.6431 2.4802 35.999 3.375 36H18V37.875C17.9984 39.1674 17.4843 40.4065 16.5704 41.3204C15.6565 42.2343 14.4174 42.7484 13.125 42.75C12.8266 42.75 12.5405 42.8685 12.3295 43.0795C12.1185 43.2905 12 43.5766 12 43.875C12 44.1734 12.1185 44.4595 12.3295 44.6705C12.5405 44.8815 12.8266 45 13.125 45H34.125C34.4234 45 34.7095 44.8815 34.9205 44.6705C35.1315 44.4595 35.25 44.1734 35.25 43.875C35.25 43.5766 35.1315 43.2905 34.9205 43.0795C34.7095 42.8685 34.4234 42.75 34.125 42.75C32.8326 42.7484 31.5935 42.2343 30.6796 41.3204C29.7657 40.4065 29.2516 39.1674 29.25 37.875V36H43.875C44.7698 35.999 45.6277 35.6431 46.2604 35.0104C46.8931 34.3777 47.249 33.5198 47.25 32.625V7.125C47.249 6.2302 46.8931 5.37233 46.2604 4.73961C45.6277 4.10689 44.7698 3.75099 43.875 3.75ZM28.9335 42.75H18.3165C19.5596 41.4313 20.2513 39.6872 20.25 37.875V36H27V37.875C26.9987 39.6872 27.6904 41.4313 28.9335 42.75V42.75ZM45 32.625C45 32.9234 44.8815 33.2095 44.6705 33.4205C44.4595 33.6315 44.1734 33.75 43.875 33.75H3.375C3.07663 33.75 2.79048 33.6315 2.5795 33.4205C2.36853 33.2095 2.25 32.9234 2.25 32.625V7.125C2.25 6.82663 2.36853 6.54048 2.5795 6.3295C2.79048 6.11853 3.07663 6 3.375 6H43.875C44.1734 6 44.4595 6.11853 44.6705 6.3295C44.8815 6.54048 45 6.82663 45 7.125V32.625Z" fill="#FFFFFF" stroke="#032D42"></path>
<path d="M16.569 11.8575L16.5585 25.5825C16.5585 25.7281 16.6008 25.8705 16.6804 25.9924C16.76 26.1144 16.8733 26.2105 17.0066 26.2691C17.1399 26.3277 17.2873 26.3462 17.431 26.3225C17.5746 26.2987 17.7082 26.2336 17.8155 26.1352L21.4208 22.827L24.7725 28.4407C24.8234 28.525 24.8904 28.5985 24.9698 28.6569C25.0491 28.7153 25.1391 28.7575 25.2347 28.7811C25.3303 28.8047 25.4297 28.8093 25.5271 28.7945C25.6244 28.7797 25.7179 28.7459 25.8023 28.695L28.2188 27.2362C28.3888 27.1334 28.5111 26.9673 28.5588 26.7743C28.6065 26.5814 28.5756 26.3774 28.473 26.2072L25.1205 20.5935L29.7225 19.0867C29.8621 19.041 29.9852 18.9553 30.0766 18.8403C30.1679 18.7252 30.2235 18.5859 30.2364 18.4396C30.2492 18.2932 30.2188 18.1463 30.1489 18.0171C30.0791 17.8879 29.9728 17.7821 29.8433 17.7127L17.673 11.1967C17.5588 11.1356 17.4306 11.105 17.3011 11.1081C17.1716 11.1112 17.045 11.1478 16.9338 11.2144C16.8227 11.2809 16.7306 11.3751 16.6667 11.4878C16.6027 11.6005 16.5691 11.7279 16.569 11.8575Z" fill="#86ED78" stroke="#032D42"></path>
</svg>