<svg xmlns:xlink="http://www.w3.org/1999/xlink" xmlns="http://www.w3.org/2000/svg" width="48" height="48" viewBox="0 0 48 48" fill="none" class="cus-logo-svg  replaced-inlinesvg">
<path d="M7.5 3V12H45V3H7.5ZM12.75 9.75C12.305 9.75 11.87 9.61804 11.5 9.37081C11.13 9.12357 10.8416 8.77217 10.6713 8.36104C10.501 7.9499 10.4564 7.4975 10.5432 7.06105C10.63 6.62459 10.8443 6.22368 11.159 5.90901C11.4737 5.59434 11.8746 5.38005 12.311 5.29323C12.7475 5.20642 13.1999 5.25097 13.611 5.42127C14.0222 5.59157 14.3736 5.87996 14.6208 6.24997C14.868 6.61998 15 7.05499 15 7.5C15 8.09674 14.7629 8.66903 14.341 9.09099C13.919 9.51295 13.3467 9.75 12.75 9.75ZM18.75 9.75C18.305 9.75 17.87 9.61804 17.5 9.37081C17.13 9.12357 16.8416 8.77217 16.6713 8.36104C16.501 7.9499 16.4564 7.4975 16.5432 7.06105C16.63 6.62459 16.8443 6.22368 17.159 5.90901C17.4737 5.59434 17.8746 5.38005 18.311 5.29323C18.7475 5.20642 19.1999 5.25097 19.611 5.42127C20.0222 5.59157 20.3736 5.87996 20.6208 6.24997C20.868 6.61998 21 7.05499 21 7.5C21 8.09674 20.7629 8.66903 20.341 9.09099C19.919 9.51295 19.3467 9.75 18.75 9.75V9.75ZM24.75 9.75C24.305 9.75 23.87 9.61804 23.5 9.37081C23.13 9.12357 22.8416 8.77217 22.6713 8.36104C22.501 7.9499 22.4564 7.4975 22.5432 7.06105C22.63 6.62459 22.8443 6.22368 23.159 5.90901C23.4737 5.59434 23.8746 5.38005 24.311 5.29323C24.7475 5.20642 25.1999 5.25097 25.611 5.42127C26.0222 5.59157 26.3736 5.87996 26.6208 6.24997C26.868 6.61998 27 7.05499 27 7.5C27 8.09674 26.7629 8.66903 26.341 9.09099C25.919 9.51295 25.3467 9.75 24.75 9.75Z" fill="#62D84E" stroke="#032D42"></path>
<path d="M33.3292 25.4558L37.0343 21.75L33.3292 18.045C33.1183 17.834 32.9998 17.5478 32.9999 17.2494C33 16.951 33.1186 16.6648 33.3296 16.4539C33.5407 16.2429 33.8269 16.1245 34.1253 16.1245C34.4237 16.1246 34.7098 16.2432 34.9208 16.4542L39.4208 20.9542C39.6317 21.1652 39.7501 21.4513 39.7501 21.7496C39.7501 22.0479 39.6317 22.334 39.4208 22.545L34.9208 27.045C34.7098 27.256 34.4237 27.3746 34.1253 27.3747C33.8269 27.3748 33.5407 27.2563 33.3296 27.0454C33.1186 26.8344 33 26.5483 32.9999 26.2499C32.9998 25.9515 33.1183 25.6653 33.3292 25.4542V25.4558ZM19.9208 16.4557C19.8163 16.3512 19.6922 16.2683 19.5557 16.2117C19.4191 16.1551 19.2728 16.126 19.125 16.126C18.9772 16.126 18.8309 16.1551 18.6943 16.2117C18.5578 16.2683 18.4337 16.3512 18.3292 16.4557L13.8292 20.9557C13.6183 21.1667 13.4999 21.4528 13.4999 21.7511C13.4999 22.0494 13.6183 22.3355 13.8292 22.5465L18.3292 27.0465C18.5402 27.2575 18.8263 27.3762 19.1247 27.3762C19.4231 27.3763 19.7093 27.2578 19.9204 27.0469C20.1314 26.8359 20.25 26.5498 20.2501 26.2514C20.2502 25.953 20.1317 25.6668 19.9208 25.4558L16.2158 21.75L19.9208 18.045C20.1312 17.8341 20.2494 17.5483 20.2494 17.2504C20.2494 16.9524 20.1312 16.6667 19.9208 16.4557V16.4557ZM23.169 29.529C23.312 29.5938 23.4672 29.6273 23.6243 29.6272C23.842 29.6272 24.0551 29.564 24.2376 29.4452C24.4201 29.3265 24.5642 29.1573 24.6525 28.9583L30.6525 15.4583C30.7125 15.3232 30.7452 15.1776 30.7489 15.0299C30.7526 14.8821 30.7272 14.7351 30.6741 14.5972C30.6209 14.4593 30.5411 14.3332 30.4392 14.2261C30.3373 14.1191 30.2154 14.0331 30.0802 13.9733C29.9372 13.9085 29.782 13.875 29.625 13.875C29.4074 13.8754 29.1946 13.9389 29.0124 14.0577C28.8302 14.1766 28.6863 14.3458 28.5983 14.5447L22.5983 28.0448C22.4773 28.3174 22.4696 28.6269 22.5767 28.9052C22.6839 29.1835 22.8972 29.4079 23.1697 29.529H23.169ZM43.875 0.75H9.375C8.4802 0.750993 7.62233 1.10689 6.98961 1.73961C6.35689 2.37233 6.00099 3.2302 6 4.125V22.875C6 23.1734 6.11853 23.4595 6.3295 23.6705C6.54048 23.8815 6.82663 24 7.125 24C7.42337 24 7.70952 23.8815 7.9205 23.6705C8.13147 23.4595 8.25 23.1734 8.25 22.875V4.125C8.25 3.82663 8.36853 3.54048 8.5795 3.3295C8.79048 3.11853 9.07663 3 9.375 3H43.875C44.1734 3 44.4595 3.11853 44.6705 3.3295C44.8815 3.54048 45 3.82663 45 4.125V31.125C45 31.4234 44.8815 31.7095 44.6705 31.9205C44.4595 32.1315 44.1734 32.25 43.875 32.25H19.875C19.5766 32.25 19.2905 32.3685 19.0795 32.5795C18.8685 32.7905 18.75 33.0766 18.75 33.375C18.75 33.6734 18.8685 33.9595 19.0795 34.1705C19.2905 34.3815 19.5766 34.5 19.875 34.5H43.875C44.7698 34.499 45.6277 34.1431 46.2604 33.5104C46.8931 32.8777 47.249 32.0198 47.25 31.125V4.125C47.249 3.2302 46.8931 2.37233 46.2604 1.73961C45.6277 1.10689 44.7698 0.750993 43.875 0.75V0.75ZM20.25 46.182V46.875C20.25 47.1734 20.1315 47.4595 19.9205 47.6705C19.7095 47.8815 19.4234 48 19.125 48C18.8266 48 18.5405 47.8815 18.3295 47.6705C18.1185 47.4595 18 47.1734 18 46.875V46.182C18 42.225 14.4675 39 10.125 39C5.7825 39 2.25 42.225 2.25 46.182V46.875C2.25 47.1734 2.13147 47.4595 1.9205 47.6705C1.70952 47.8815 1.42337 48 1.125 48C0.826631 48 0.540483 47.8815 0.329505 47.6705C0.118526 47.4595 0 47.1734 0 46.875L0 46.182C0.0269076 44.3956 0.565159 42.6542 1.55102 41.1642C2.53689 39.6742 3.92908 38.4978 5.56275 37.7745L6.048 37.545L5.66475 37.17C4.75981 36.2839 4.13934 35.1482 3.88248 33.908C3.62561 32.6678 3.74401 31.3791 4.22255 30.2065C4.70109 29.0338 5.51809 28.0302 6.56934 27.3238C7.6206 26.6174 8.85845 26.2401 10.125 26.2401C11.3916 26.2401 12.6294 26.6174 13.6807 27.3238C14.7319 28.0302 15.5489 29.0338 16.0275 30.2065C16.506 31.3791 16.6244 32.6678 16.3675 33.908C16.1107 35.1482 15.4902 36.2839 14.5853 37.17L14.202 37.545L14.6873 37.7745C16.3209 38.4978 17.7131 39.6742 18.699 41.1642C19.6848 42.6542 20.2231 44.3956 20.25 46.182ZM14.25 32.625C14.25 31.8092 14.0081 31.0116 13.5548 30.3333C13.1016 29.6549 12.4573 29.1262 11.7036 28.814C10.9498 28.5018 10.1204 28.4201 9.32025 28.5793C8.52008 28.7384 7.78508 29.1313 7.20818 29.7082C6.63129 30.2851 6.23843 31.0201 6.07926 31.8203C5.9201 32.6204 6.00179 33.4498 6.314 34.2036C6.62621 34.9573 7.15492 35.6016 7.83327 36.0548C8.51163 36.5081 9.30915 36.75 10.125 36.75C11.2187 36.7488 12.2672 36.3138 13.0405 35.5405C13.8138 34.7672 14.2488 33.7187 14.25 32.625V32.625Z" fill="#FFFFFF" stroke="#032D42"></path>
</svg>