<svg xmlns:xlink="http://www.w3.org/1999/xlink" xmlns="http://www.w3.org/2000/svg" width="48" height="48" viewBox="0 0 48 48" fill="none" class="cus-logo-svg  replaced-inlinesvg">
<path d="M39.3225 41.2499C39.3225 44.1524 32.7975 46.4999 24.75 46.4999C16.7025 46.4999 10.1775 44.1524 10.1775 41.2499C10.1775 38.6099 15.5775 36.4274 22.605 36.0599C23.4549 37.0716 24.1754 38.1852 24.75 39.3749C25.2393 38.1815 25.8904 37.061 26.685 36.0449C33.8175 36.3899 39.3225 38.5874 39.3225 41.2499Z" fill="#86ED78" stroke="#032D42"></path>
<path fill-rule="evenodd" clip-rule="evenodd" d="M24.75 13.5C22.886 13.5 21.375 15.011 21.375 16.875C21.375 18.739 22.886 20.25 24.75 20.25C26.614 20.25 28.125 18.739 28.125 16.875C28.125 15.011 26.614 13.5 24.75 13.5ZM19.125 16.875C19.125 13.7684 21.6434 11.25 24.75 11.25C27.8566 11.25 30.375 13.7684 30.375 16.875C30.375 19.9816 27.8566 22.5 24.75 22.5C21.6434 22.5 19.125 19.9816 19.125 16.875Z" fill="#FFFFFF" stroke="#032D42"></path>
<path fill-rule="evenodd" clip-rule="evenodd" d="M24.7362 0.750085C24.7454 0.749972 24.7546 0.749972 24.7638 0.750085C28.9883 0.801993 33.0193 2.52963 35.9703 5.55306C38.9196 8.5749 40.5488 12.6439 40.5 16.866C40.4979 23.4363 37.4241 27.2564 34.0807 30.4081C33.4093 31.041 32.7187 31.6547 32.0457 32.2528C31.8917 32.3897 31.7386 32.5257 31.5868 32.661C30.7645 33.3941 29.9742 34.1114 29.2373 34.8564C27.7656 36.3443 26.5485 37.9027 25.7949 39.7918C25.6294 40.2067 25.2341 40.4844 24.7876 40.4994C24.3411 40.5143 23.9281 40.2636 23.7352 39.8607C22.8159 37.94 21.5018 36.362 19.9904 34.8645C19.2333 34.1143 18.4368 33.394 17.6178 32.6581C17.5603 32.6063 17.5026 32.5545 17.4448 32.5026C16.6865 31.8215 15.9099 31.1239 15.1596 30.398C11.8852 27.2302 9.00197 23.4132 9 16.8659C8.95122 12.6438 10.5804 8.57489 13.5297 5.55306C16.4807 2.52963 20.5117 0.801993 24.7362 0.750085ZM39.375 16.8593L38.2501 16.8458C38.2935 13.2178 36.8943 9.72111 34.3601 7.12464C31.8291 4.53145 28.3729 3.04826 24.75 3.00009C21.1271 3.04826 17.6709 4.53145 15.1399 7.12464C12.6057 9.72111 11.2065 13.2178 11.2499 16.8458L11.25 16.8593C11.25 22.5674 13.6842 25.8401 16.724 28.7809C17.4431 29.4766 18.19 30.1475 18.9548 30.8345C19.0103 30.8844 19.066 30.9344 19.1218 30.9845C19.9387 31.7187 20.7731 32.4726 21.574 33.2661C22.6958 34.3777 23.7719 35.5856 24.6852 36.9793C25.5154 35.5869 26.543 34.3809 27.6376 33.2742C28.4276 32.4755 29.2629 31.7186 30.0895 30.9816C30.2473 30.8409 30.4045 30.7012 30.561 30.5621C31.2323 29.9654 31.8924 29.3788 32.5373 28.7708C35.6742 25.8139 38.25 22.5443 38.25 16.8593H39.375Z" fill="#FFFFFF" stroke="#032D42"></path>
</svg>